<svg id="Bell" xmlns="http://www.w3.org/2000/svg" width="28" height="28" viewBox="0 0 28 28">
  <defs>
    <style>
      .cls-1 {
        fill: #010101;
      }
    </style>
  </defs>
  <path id="Bell-2" data-name="Bell" class="cls-1" d="M16,1.75v1c4.53.63,8,4.06,8,8.21v1.82a10.14,10.14,0,0,0,2.74,6.84l.93,1A1.18,1.18,0,0,1,27.85,22a1.53,1.53,0,0,1-1.35.74H1.5A1.53,1.53,0,0,1,.15,22a1.18,1.18,0,0,1,.18-1.39l.93-1A10.14,10.14,0,0,0,4,12.76V10.94c0-4.15,3.47-7.58,8-8.21v-1A1.88,1.88,0,0,1,14,0a1.88,1.88,0,0,1,2,1.75Zm-2.5,3.5C9.91,5.25,7,7.8,7,10.94v1.82a12.38,12.38,0,0,1-2.48,7.36h19A12.38,12.38,0,0,1,21,12.76V10.94c0-3.14-2.91-5.69-6.5-5.69ZM18,24.5A3.39,3.39,0,0,1,16.83,27,4.44,4.44,0,0,1,14,28a4.34,4.34,0,0,1-2.83-1A3.39,3.39,0,0,1,10,24.5Z" transform="translate(0 0)"/>
</svg>
