<svg id="Check" xmlns="http://www.w3.org/2000/svg" width="28" height="28" viewBox="0 0 28 28">
  <defs>
    <style>
      .cls-1 {
        fill: #010101;
      }
    </style>
  </defs>
  <path id="Check-2" data-name="Check" class="cls-1" d="M13.33,18.58a1.52,1.52,0,0,1-2.16,0l-3.5-3.5a1.53,1.53,0,0,1,2.16-2.16l2.42,2.41,5.92-5.91a1.53,1.53,0,0,1,2.16,2.16ZM28,14A14,14,0,1,1,14,0,14,14,0,0,1,28,14ZM14,2.63A11.38,11.38,0,1,0,25.38,14,11.38,11.38,0,0,0,14,2.63Z" transform="translate(0 0)"/>
</svg>
