<svg id="Home" xmlns="http://www.w3.org/2000/svg" width="28" height="28" viewBox="0 0 28 28">
  <defs>
    <style>
      .cls-1 {
        fill: #010101;
      }
    </style>
  </defs>
  <path id="Home-2" data-name="Home" class="cls-1" d="M28,14a1.68,1.68,0,0,1-1.55,1.76H24.88l0,8.76a3.25,3.25,0,0,1,0,.44v.88A2.08,2.08,0,0,1,23,28H19.06a2.08,2.08,0,0,1-1.95-2.19V21a1.65,1.65,0,0,0-1.55-1.75H12.45A1.66,1.66,0,0,0,10.89,21v4.81A2.08,2.08,0,0,1,9,28H5.06a2.08,2.08,0,0,1-1.95-2.19V19.69a.86.86,0,0,1,0-.16v-3.8H1.56A1.65,1.65,0,0,1,0,14a1.89,1.89,0,0,1,.49-1.31L13,.44A1.29,1.29,0,0,1,14,0a1.51,1.51,0,0,1,1,.38L27.46,12.66A1.56,1.56,0,0,1,28,14Z" transform="translate(0 0)"/>
</svg>
