<svg id="Menu" xmlns="http://www.w3.org/2000/svg" width="28" height="28" viewBox="0 0 28 28">
  <defs>
    <style>
      .cls-1 {
        fill: #010101;
      }
    </style>
  </defs>
  <path id="Menu-2" data-name="Menu" class="cls-1" d="M0,2.33A2.18,2.18,0,0,1,2,0H26a2.18,2.18,0,0,1,2,2.33,2.19,2.19,0,0,1-2,2.34H2A2.19,2.19,0,0,1,0,2.33ZM0,14a2.18,2.18,0,0,1,2-2.33H26A2.18,2.18,0,0,1,28,14a2.18,2.18,0,0,1-2,2.33H2A2.18,2.18,0,0,1,0,14ZM28,25.67A2.18,2.18,0,0,1,26,28H2a2.18,2.18,0,0,1-2-2.33,2.19,2.19,0,0,1,2-2.34H26A2.19,2.19,0,0,1,28,25.67Z" transform="translate(0 0)"/>
</svg>
