<svg id="Settings" xmlns="http://www.w3.org/2000/svg" width="28" height="28" viewBox="0 0 28 28">
  <defs>
    <style>
      .cls-1 {
        fill: #010101;
      }
    </style>
  </defs>
  <path class="cls-1" d="M0,23.33a1.8,1.8,0,0,1,1.75-1.86h3a4.37,4.37,0,0,1,4-2.8,4.37,4.37,0,0,1,4,2.8H26.25a1.87,1.87,0,0,1,0,3.73H12.76a4.37,4.37,0,0,1-4,2.8,4.37,4.37,0,0,1-4-2.8h-3A1.81,1.81,0,0,1,0,23.33Zm10.5,0a1.8,1.8,0,0,0-1.75-1.86,1.87,1.87,0,0,0,0,3.73A1.81,1.81,0,0,0,10.5,23.33ZM21,14a1.75,1.75,0,1,0-1.75,1.87A1.81,1.81,0,0,0,21,14ZM19.25,9.33a4.37,4.37,0,0,1,4,2.8h3a1.87,1.87,0,0,1,0,3.74h-3a4.27,4.27,0,0,1-8,0H1.75a1.87,1.87,0,0,1,0-3.74H15.24A4.37,4.37,0,0,1,19.25,9.33ZM10.5,2.8A1.81,1.81,0,0,0,8.75,4.67,1.8,1.8,0,0,0,10.5,6.53a1.8,1.8,0,0,0,1.75-1.86A1.81,1.81,0,0,0,10.5,2.8Zm4,0H26.25A1.81,1.81,0,0,1,28,4.67a1.8,1.8,0,0,1-1.75,1.86H14.51a4.37,4.37,0,0,1-4,2.8,4.37,4.37,0,0,1-4-2.8H1.75A1.8,1.8,0,0,1,0,4.67,1.81,1.81,0,0,1,1.75,2.8H6.49a4.37,4.37,0,0,1,4-2.8A4.37,4.37,0,0,1,14.51,2.8Z" transform="translate(0 0)"/>
</svg>
