<svg id="User" xmlns="http://www.w3.org/2000/svg" width="28" height="28" viewBox="0 0 28 28">
  <defs>
    <style>
      .cls-1 {
        fill: #010101;
      }
    </style>
  </defs>
  <path id="User-2" data-name="User" class="cls-1" d="M14,6.12a4.82,4.82,0,1,0,4.81,4.82A4.81,4.81,0,0,0,14,6.12Zm0,7a2.19,2.19,0,1,1,2.19-2.18A2.19,2.19,0,0,1,14,13.12ZM14,0A14,14,0,1,0,28,14,14,14,0,0,0,14,0Zm0,25.38a11.28,11.28,0,0,1-6.81-2.29,5.45,5.45,0,0,1,4.85-3H16a5.45,5.45,0,0,1,4.85,3A11.3,11.3,0,0,1,14,25.38Zm8.76-4.13A8,8,0,0,0,16,17.5H12a8,8,0,0,0-6.8,3.75,11.38,11.38,0,1,1,17.52,0Z"/>
</svg>
